<?xml version="1.0" standalone="no"?>
<!DOCTYPE svg PUBLIC "-//W3C//DTD SVG 20010904//EN"
 "http://www.w3.org/TR/2001/REC-SVG-20010904/DTD/svg10.dtd">
<svg version="1.0" xmlns="http://www.w3.org/2000/svg"
 width="2000.000000pt" height="2465.000000pt" viewBox="0 0 2000.000000 2465.000000"
 preserveAspectRatio="xMidYMid meet">

<g transform="translate(0.000000,2465.000000) scale(0.100000,-0.100000)"
fill="#043c2c" stroke="none">
<path d="M16825 22158 c-60 -27 -470 -204 -910 -393 -1029 -441 -1267 -549
-1601 -728 -446 -239 -646 -387 -796 -587 -110 -147 -322 -523 -316 -562 2
-16 11 -24 29 -26 20 -2 64 26 195 123 184 138 304 213 543 339 358 188 587
292 1636 741 440 189 842 363 894 387 l94 43 198 344 c109 188 195 349 192
357 -9 23 -42 15 -158 -38z"/>
<path d="M16854 20345 c-123 -27 -285 -131 -403 -261 -137 -150 -241 -301
-419 -612 -135 -236 -150 -288 -117 -415 21 -81 65 -163 133 -249 58 -73 178
-178 251 -220 l38 -22 -53 -63 c-104 -122 -110 -136 -170 -411 -40 -181 -39
-208 2 -206 11 0 78 43 149 94 231 167 552 373 1245 800 146 90 315 196 377
236 130 84 114 48 139 332 17 200 15 222 -23 222 -9 0 -88 -44 -177 -99 -329
-202 -571 -328 -703 -367 -160 -46 -307 -42 -503 16 -165 49 -306 184 -369
355 l-23 60 49 43 c82 72 210 153 285 179 100 35 217 30 298 -12 77 -39 179
-146 215 -224 36 -77 66 -95 101 -59 22 24 84 175 126 308 18 59 23 98 23 180
0 100 -2 109 -34 172 -62 123 -164 205 -286 227 -70 13 -73 13 -151 -4z"/>
<path d="M10556 17387 c-9 -7 -119 -255 -245 -552 l-229 -540 18 -185 c86
-840 224 -2798 415 -5865 36 -577 92 -1484 125 -2015 34 -531 64 -1071 67
-1201 l6 -237 -60 -83 c-183 -253 -576 -650 -972 -981 -1269 -1061 -2854
-1825 -4181 -2017 -239 -35 -370 -44 -620 -45 -479 -1 -843 71 -1160 228 -723
360 -1157 953 -1289 1766 -33 205 -44 352 -43 605 0 514 73 979 291 1854 39
156 71 302 71 326 0 42 -21 75 -49 75 -110 0 -375 -613 -529 -1225 -246 -976
-277 -1948 -86 -2710 206 -820 691 -1448 1433 -1855 155 -85 236 -121 371
-165 286 -92 501 -125 865 -132 356 -7 606 16 975 88 1489 292 3231 1249 4474
2459 289 281 392 415 511 662 105 219 161 403 236 772 22 109 35 153 40 140 5
-10 33 -86 65 -169 124 -331 282 -598 470 -794 224 -234 425 -343 743 -403
152 -29 499 -32 656 -5 120 21 303 67 404 102 41 14 80 25 86 25 6 0 28 -58
49 -129 21 -71 47 -143 57 -160 31 -52 83 -34 94 32 3 18 8 101 13 186 l7 153
145 62 c988 422 1530 992 1765 1859 97 360 93 867 -11 1334 -14 65 -50 191
-79 279 -157 477 -383 770 -657 849 -246 71 -488 -73 -780 -462 -302 -404
-527 -927 -642 -1494 -67 -333 -86 -559 -87 -1028 0 -193 -4 -353 -9 -356 -4
-3 -64 -15 -132 -27 -101 -18 -162 -22 -338 -23 -225 0 -291 7 -455 50 -123
32 -236 81 -337 147 -433 282 -629 875 -713 2153 -8 127 -19 277 -25 335 -37
391 -101 1305 -140 1985 -11 193 -22 391 -25 440 -3 50 -30 581 -60 1180 -105
2079 -161 2842 -276 3705 -42 321 -140 899 -165 983 -8 26 -38 39 -58 24z
m3974 -8827 c195 -99 408 -488 498 -910 45 -206 45 -204 -18 -294 -126 -184
-549 -465 -990 -659 -166 -73 -369 -151 -376 -145 -15 15 53 533 101 773 60
296 125 489 241 713 155 300 311 488 436 527 58 18 63 18 108 -5z"/>
<path d="M16708 17213 c-13 -15 -442 -1036 -455 -1086 -3 -9 6 -42 21 -72 14
-31 55 -151 90 -268 64 -211 64 -213 80 -417 88 -1138 248 -3112 515 -6370
209 -2549 216 -2636 226 -2870 12 -285 36 -686 45 -745 14 -85 58 -112 98 -60
26 33 141 380 187 564 54 216 122 533 139 651 26 179 39 467 32 740 -6 247
-72 1118 -480 6385 -57 737 -103 1341 -102 1342 1 1 47 -55 103 -125 173 -215
308 -366 336 -376 21 -8 31 -6 48 10 19 17 21 26 16 94 -13 162 -128 560 -363
1255 -271 804 -462 1329 -492 1353 -21 16 -26 15 -44 -5z"/>
<path d="M8770 15551 c-286 -92 -545 -420 -669 -846 -56 -193 -93 -351 -89
-383 2 -22 8 -27 32 -27 27 0 36 11 100 112 163 257 314 380 481 391 123 8
183 -33 227 -156 29 -81 35 -223 14 -345 -51 -298 -219 -629 -510 -1002 -195
-251 -320 -435 -314 -464 5 -26 34 -36 61 -22 14 7 111 97 215 200 400 393
659 765 818 1177 92 240 136 460 137 689 1 238 -41 405 -137 539 -98 137 -222
184 -366 137z"/>
</g>
</svg>
